<?xml version="1.0" encoding="utf-8"?>
<!-- Generator: Adobe Illustrator 16.0.3, SVG Export Plug-In . SVG Version: 6.00 Build 0)  -->
<!DOCTYPE svg PUBLIC "-//W3C//DTD SVG 1.1//EN" "http://www.w3.org/Graphics/SVG/1.1/DTD/svg11.dtd">
<svg version="1.1" id="Capa_1" xmlns="http://www.w3.org/2000/svg" xmlns:xlink="http://www.w3.org/1999/xlink" x="0px" y="0px"
	 width="4000.28px" height="4000.89px" viewBox="0 0 4000.28 4000.89" enable-background="new 0 0 4000.28 4000.89"
	 xml:space="preserve">
<path fill="#FFFFFF" stroke="#E6302A" stroke-width="30" stroke-miterlimit="10" d="M3134.007,1507.037l-171.475,93.253
	l-174.79-84.664l27.788-194.83l171.48-93.258c-82.607-46.593-186.055-50.927-275.549-2.258
	c-140.145,76.214-192.99,253.515-118.041,396.022c74.953,142.504,249.318,196.242,389.462,120.028
	C3072.376,1692.663,3126.263,1602.766,3134.007,1507.037z"/>
<path fill="#FFFFFF" stroke="#E6302A" stroke-width="30" stroke-miterlimit="10" d="M813.641,2409.473l171.478-93.253
	l174.789,84.661l-27.787,194.833l-171.48,93.257c82.603,46.593,186.051,50.927,275.544,2.256
	c140.145-76.213,192.992-253.517,118.041-396.021c-74.95-142.504-249.317-196.243-389.458-120.028
	C875.271,2223.845,821.386,2313.744,813.641,2409.473z"/>
<path fill="#FFFFFF" stroke="#E6302A" stroke-width="30" stroke-miterlimit="10" d="M2796.156,2193.65
	c12.131-54.982,19.057-111.959,20.236-170.374l-110.602-35.46c-0.719-31.729-3.389-62.969-7.898-93.597l102.137-58.758
	c-11.094-56.084-27.563-110.185-48.848-161.724l-115.254,13.352c-13.91-29.871-29.713-58.651-47.26-86.183l69.617-95.675
	c-32.111-45.368-68.477-87.42-108.512-125.54l-99.971,59.878c-25.449-22.158-52.398-42.58-80.689-61.065l25.287-115.999
	c-46.789-27.452-96.414-50.461-148.318-68.473l-67.52,96.256c-32.568-9.627-66.066-17.021-100.332-21.996l-23.223-116.036
	c-26.728-2.601-53.817-3.946-81.216-3.946s-54.492,1.346-81.219,3.946l-23.22,116.036c-34.269,4.976-67.768,12.369-100.333,21.996
	l-67.521-96.256c-51.903,18.012-101.53,41.021-148.317,68.473l25.287,115.999c-28.292,18.487-55.244,38.907-80.689,61.065
	l-99.974-59.878c-40.03,38.12-76.396,80.172-108.511,125.54l69.624,95.675c-17.552,27.531-33.356,56.312-47.266,86.183
	l-115.251-13.352c-21.288,51.539-37.756,105.64-48.845,161.724l102.134,58.758c-4.51,30.628-7.182,61.867-7.9,93.597l-110.602,35.46
	c1.183,58.415,8.111,115.392,20.238,170.374l116.828,11.441c7.883,28.854,17.432,57.006,28.539,84.334l-86.979,78.25
	c24.314,52.908,53.788,102.871,87.758,149.223l111.306-37.869c17.724,21.828,36.655,42.605,56.677,62.238l-48.25,107.662
	c43.19,38.645,90.303,72.863,140.653,101.961l86.383-80.488c23.943,12.287,48.636,23.271,73.999,32.875l-1.019,118.617
	c54.473,17.676,111.346,29.885,170.002,35.963l46.652-109.092c13.181,0.719,26.455,1.094,39.816,1.094
	c13.358,0,26.631-0.375,39.813-1.094l46.648,109.092c58.662-6.078,115.533-18.287,170.006-35.963l-1.018-118.617
	c25.361-9.604,50.057-20.588,73.998-32.875l86.385,80.488c50.348-29.098,97.461-63.316,140.652-101.961l-48.248-107.662
	c20.02-19.633,38.951-40.41,56.674-62.238l111.303,37.869c33.975-46.352,63.447-96.314,87.76-149.223l-86.979-78.25
	c11.107-27.328,20.658-55.48,28.539-84.334L2796.156,2193.65z"/>
<path fill="none" d="M1973.792,2594.881c-321.426,0-581.992-264.957-581.992-591.797c0-326.838,260.566-591.796,581.992-591.796
	c321.421,0,581.99,264.958,581.99,591.796C2555.781,2329.924,2295.213,2594.881,1973.792,2594.881z"/>
<text transform="matrix(-0.2016 -0.9625 0.9788 -0.205 1411.689 2160.9531)" fill="#E6302A" font-family="'Consolas-Bold'" font-size="128.5245">D</text>
<text transform="matrix(-0.0928 -0.979 0.9955 -0.0944 1397.7925 2095.1797)" fill="#E6302A" font-family="'Consolas-Bold'" font-size="128.5245">E</text>
<text transform="matrix(0.0157 -0.9833 0.9999 0.0159 1391.3188 2028.3281)" fill="#E6302A" font-family="'Consolas-Bold'" font-size="128.5245">P</text>
<text transform="matrix(0.1239 -0.9756 0.992 0.126 1392.2461 1960.9951)" fill="#E6302A" font-family="'Consolas-Bold'" font-size="128.5245">A</text>
<text transform="matrix(0.2324 -0.9556 0.9717 0.2363 1400.583 1894.3032)" fill="#E6302A" font-family="'Consolas-Bold'" font-size="128.5245">R</text>
<text transform="matrix(0.3386 -0.9233 0.9389 0.3443 1416.3374 1828.9663)" fill="#E6302A" font-family="'Consolas-Bold'" font-size="128.5245">T</text>
<text transform="matrix(0.4406 -0.8792 0.894 0.448 1439.3511 1765.8296)" fill="#E6302A" font-family="'Consolas-Bold'" font-size="128.5245">A</text>
<text transform="matrix(0.4996 -0.8471 0.8613 0.508 1470.6191 1705.417)" fill="#E6302A" font-family="'Consolas-Bold'" font-size="27"> </text>
<text transform="matrix(0.5564 -0.8109 0.8246 0.5658 1476.4927 1693.5176)" fill="#E6302A" font-family="'Consolas-Bold'" font-size="128.5245">M</text>
<text transform="matrix(0.6444 -0.7429 0.7554 0.6552 1514.3999 1638.0352)" fill="#E6302A" font-family="'Consolas-Bold'" font-size="128.5245">E</text>
<text transform="matrix(0.7244 -0.6651 0.6763 0.7366 1558.313 1587.2021)" fill="#E6302A" font-family="'Consolas-Bold'" font-size="128.5245">N</text>
<text transform="matrix(0.7956 -0.5781 0.5878 0.809 1607.7051 1541.6699)" fill="#E6302A" font-family="'Consolas-Bold'" font-size="128.5245">T</text>
<text transform="matrix(0.8569 -0.4826 0.4907 0.8713 1661.959 1502.0767)" fill="#E6302A" font-family="'Consolas-Bold'" font-size="128.5245">O</text>
<text transform="matrix(0.9072 -0.3797 0.3861 0.9225 1720.3652 1469.0186)" fill="#E6302A" font-family="'Consolas-Bold'" font-size="128.5245"> </text>
<text transform="matrix(0.9454 -0.2709 0.2754 0.9613 1782.2217 1442.9736)" fill="#E6302A" font-family="'Consolas-Bold'" font-size="128.5245">D</text>
<text transform="matrix(0.9706 -0.1582 0.1608 0.987 1846.6938 1424.3584)" fill="#E6302A" font-family="'Consolas-Bold'" font-size="128.5245">E</text>
<text transform="matrix(0.9824 -0.0442 0.0449 0.999 1912.9414 1413.4341)" fill="#E6302A" font-family="'Consolas-Bold'" font-size="128.5245"> </text>
<text transform="matrix(0.981 0.0692 -0.0704 0.9975 1980.0098 1410.2793)" fill="#E6302A" font-family="'Consolas-Bold'" font-size="128.5245">R</text>
<text transform="matrix(0.9662 0.1832 -0.1863 0.9825 2046.9785 1414.8579)" fill="#E6302A" font-family="'Consolas-Bold'" font-size="128.5245">E</text>
<text transform="matrix(0.9381 0.2952 -0.3002 0.9539 2112.9395 1427.2188)" fill="#E6302A" font-family="'Consolas-Bold'" font-size="128.5245">C</text>
<text transform="matrix(0.8971 0.4029 -0.4097 0.9122 2177.0117 1447.2422)" fill="#E6302A" font-family="'Consolas-Bold'" font-size="128.5245">U</text>
<text transform="matrix(0.8443 0.5043 -0.5128 0.8585 2238.3008 1474.626)" fill="#E6302A" font-family="'Consolas-Bold'" font-size="128.5245">R</text>
<text transform="matrix(0.7807 0.598 -0.608 0.7939 2296.0137 1508.9478)" fill="#E6302A" font-family="'Consolas-Bold'" font-size="128.5245">S</text>
<text transform="matrix(0.7075 0.683 -0.6945 0.7195 2349.4219 1549.6909)" fill="#E6302A" font-family="'Consolas-Bold'" font-size="128.5245">O</text>
<text transform="matrix(0.6257 0.7587 -0.7715 0.6362 2397.8438 1596.2559)" fill="#E6302A" font-family="'Consolas-Bold'" font-size="128.5245">S</text>
<text transform="matrix(0.536 0.8245 -0.8384 0.545 2440.7012 1648.0269)" fill="#E6302A" font-family="'Consolas-Bold'" font-size="128.5245"> </text>
<text transform="matrix(0.4396 0.8797 -0.8945 0.447 2477.4297 1704.2832)" fill="#E6302A" font-family="'Consolas-Bold'" font-size="128.5245">F</text>
<text transform="matrix(0.3375 0.9237 -0.9393 0.3432 2507.5879 1764.3438)" fill="#E6302A" font-family="'Consolas-Bold'" font-size="128.5245">I</text>
<text transform="matrix(0.2313 0.9558 -0.9719 0.2352 2530.7676 1827.4092)" fill="#E6302A" font-family="'Consolas-Bold'" font-size="128.5245">S</text>
<text transform="matrix(0.1228 0.9757 -0.9922 0.1249 2546.6992 1892.7168)" fill="#E6302A" font-family="'Consolas-Bold'" font-size="128.5245">I</text>
<text transform="matrix(0.0157 0.9833 -0.9999 0.0159 2555.1621 1959.5308)" fill="#E6302A" font-family="'Consolas-Bold'" font-size="128.5245">C</text>
<text transform="matrix(-0.0939 0.9789 -0.9954 -0.0955 2556.3223 2026.6719)" fill="#E6302A" font-family="'Consolas-Bold'" font-size="128.5245">O</text>
<text transform="matrix(-0.2026 0.9623 -0.9785 -0.2061 2550.0391 2093.5918)" fill="#E6302A" font-family="'Consolas-Bold'" font-size="128.5245">S</text>
<ellipse fill="none" cx="1973.79" cy="2003.084" rx="673.947" ry="682.277"/>
<text transform="matrix(0.5671 0.8087 -0.8187 0.5742 1403.8354 2369.0273)" fill="#E6302A" font-family="'Consolas-Bold'" font-size="128.5245">A</text>
<text transform="matrix(0.653 0.7412 -0.7504 0.661 1447.5845 2430.8438)" fill="#E6302A" font-family="'Consolas-Bold'" font-size="128.5245">S</text>
<text transform="matrix(0.731 0.6644 -0.6726 0.74 1497.9126 2487.4746)" fill="#E6302A" font-family="'Consolas-Bold'" font-size="128.5245">I</text>
<text transform="matrix(0.8005 0.5788 -0.5859 0.8103 1554.2368 2538.2168)" fill="#E6302A" font-family="'Consolas-Bold'" font-size="128.5245">S</text>
<text transform="matrix(0.8604 0.4852 -0.4912 0.871 1615.9023 2582.3926)" fill="#E6302A" font-family="'Consolas-Bold'" font-size="128.5245">T</text>
<text transform="matrix(0.9099 0.3845 -0.3893 0.9211 1682.2109 2619.3926)" fill="#E6302A" font-family="'Consolas-Bold'" font-size="128.5245">E</text>
<text transform="matrix(0.9478 0.2782 -0.2816 0.9595 1752.3081 2648.6367)" fill="#E6302A" font-family="'Consolas-Bold'" font-size="128.5245">N</text>
<text transform="matrix(0.9734 0.1681 -0.1701 0.9854 1825.2925 2669.6875)" fill="#E6302A" font-family="'Consolas-Bold'" font-size="128.5245">C</text>
<text transform="matrix(0.9862 0.0566 -0.0573 0.9984 1900.1646 2682.25)" fill="#E6302A" font-family="'Consolas-Bold'" font-size="128.5245">I</text>
<text transform="matrix(0.9863 -0.0539 0.0546 0.9985 1975.8774 2686.2598)" fill="#E6302A" font-family="'Consolas-Bold'" font-size="128.5245">A</text>
<text transform="matrix(0.9739 -0.1653 0.1674 0.9859 2051.6689 2681.7773)" fill="#E6302A" font-family="'Consolas-Bold'" font-size="128.5245"> </text>
<text transform="matrix(0.9486 -0.2755 0.2789 0.9603 2126.4932 2668.7188)" fill="#E6302A" font-family="'Consolas-Bold'" font-size="128.5245">P</text>
<text transform="matrix(0.911 -0.382 0.3867 0.9222 2199.3213 2647.1953)" fill="#E6302A" font-family="'Consolas-Bold'" font-size="128.5245">U</text>
<text transform="matrix(0.8617 -0.4828 0.4888 0.8724 2269.2197 2617.502)" fill="#E6302A" font-family="'Consolas-Bold'" font-size="128.5245">B</text>
<text transform="matrix(0.802 -0.5766 0.5837 0.8119 2335.2314 2580.1172)" fill="#E6302A" font-family="'Consolas-Bold'" font-size="128.5245">L</text>
<text transform="matrix(0.7328 -0.6624 0.6705 0.7419 2396.5742 2535.5977)" fill="#E6302A" font-family="'Consolas-Bold'" font-size="128.5245">I</text>
<text transform="matrix(0.655 -0.7394 0.7486 0.6631 2452.5654 2484.5391)" fill="#E6302A" font-family="'Consolas-Bold'" font-size="128.5245">C</text>
<text transform="matrix(0.5693 -0.8072 0.8172 0.5763 2502.5479 2427.6113)" fill="#E6302A" font-family="'Consolas-Bold'" font-size="128.5245">A</text>
<ellipse fill="#E6302A" cx="1973.791" cy="2003.084" rx="530.055" ry="538.988"/>
<g>
	<g>
		<path fill="#FFFFFF" d="M2293.381,1812.25v375.517c-60.141-65.516-146.603-106.566-242.762-106.566v0.007
			c0,98.445,43.288,186.688,111.94,246.844h-370.393c64.43-61.146,104.793-149.054,104.793-246.844v-0.007
			c-96.806,0-183.594,44.028-242.76,113.828V1818.4c60.138,65.518,146.597,106.57,242.76,106.57
			c0-98.448-43.287-186.699-111.935-246.854h371.559c-65.111,61.199-105.965,149.587-105.965,247.965
			C2147.424,1926.082,2234.214,1882.056,2293.381,1812.25z"/>
		<g>
			<path fill="#FFFFFF" d="M1741.008,1940.716"/>
		</g>
	</g>
</g>
<g display="none">
	<g display="inline">
		<path fill="#FFFFFF" d="M1853.53,1902.552v0.031c0.018,0.179,0.037,0.363,0.063,0.542"/>
		<path fill="#FFFFFF" d="M1853.631,1903.403c0.908,6.788,4.467,12.731,9.604,16.759c0.252,0.196,0.508,0.387,0.762,0.57
			c3.76,2.728,8.28,4.467,13.193,4.815h53.664h1.814h0.008h0.531"/>
		<polyline fill="#FFFFFF" points="2000.217,1807.273 2001.184,1807.273 2001.195,1807.273 2003.004,1807.273 		"/>
		<path fill="#FFFFFF" d="M2056.238,1807.273h0.113c5.049,0.361,9.693,2.186,13.514,5.051c0.1,0.072,0.201,0.147,0.299,0.228
			c0.15,0.119,0.303,0.24,0.449,0.36c5.162,4.169,8.664,10.305,9.389,17.269c0.006,0.019,0.006,0.039,0.008,0.059v11.349v1.74"/>
		<path fill="#FFFFFF" d="M1853.521,1887.421v0.175v5.346c0,0.002,0,0.004,0,0.009v9.541c0.003,0.021,0.003,0.04,0.009,0.061"/>
		<polyline fill="#FFFFFF" points="1930.407,1925.455 1930.422,1925.455 1930.849,1925.455 1932.227,1925.455 1932.235,1925.455 
			1933.201,1925.455 		"/>
		<line fill="#FFFFFF" x1="2000.752" y1="1807.184" x2="2000.213" y2="1807.184"/>
		<path fill="#FFFFFF" d="M2000.754,1807.184h55.479h0.109c12.434,0.889,22.412,10.636,23.66,22.964v0.033v11.232v2.087"/>
		<path fill="#FFFFFF" d="M2079.889,1830.181v15.035c-0.484,5.155-3.033,9.593-5.174,13.914l-0.029,0.059l-3.441,6.577l-0.008,0.005
			l-31.219,59.684l-0.049,0.093l-2.094,3.999l-54.394,103.976l-0.007,0.014v0.008c-0.055,0.101-0.105,0.204-0.158,0.308
			l-0.205,0.386c-4.881,9.039-14.44,15.18-25.429,15.18c-15.955,0-28.887-12.931-28.887-28.887c0-0.89,0.04-1.771,0.121-2.636
			l10.916-74.186l0.008-0.066c0.208-1.216,0.317-2.5,0.317-3.831c0-7.224-3.243-13.2-7.482-14.264
			c-0.065-0.017-0.132-0.031-0.201-0.046c-0.081-0.017-0.158-0.031-0.239-0.046c-0.3-0.051-0.605-0.077-0.914-0.077
			s-0.614,0.026-0.914,0.077h-53.227c-12.026-0.861-21.754-10.006-23.509-21.767c-0.013-0.093-0.026-0.188-0.041-0.284
			c-0.012-0.091-0.026-0.184-0.037-0.278c-0.024-0.19-0.044-0.381-0.063-0.573v-15.039c0.487-5.175,1.972-7.779,5.198-13.963
			l0.005-0.006l3.44-6.58l0.009-0.008l31.268-59.771l2.094-4.002l54.377-103.946c0.008-0.018,0.018-0.032,0.022-0.05
			c0.04-0.075,0.078-0.153,0.119-0.229l0.244-0.463c4.876-9.042,14.439-15.18,25.431-15.18c15.955,0,28.886,12.931,28.886,28.884
			c0,0.903-0.041,1.793-0.127,2.67v0.014l-10.91,74.147l-0.008,0.059c-0.208,1.22-0.317,2.501-0.317,3.834
			c0,7.226,3.25,13.204,7.491,14.263h0.002c0.064,0.016,0.126,0.029,0.19,0.044c0.081,0.018,0.159,0.032,0.239,0.046
			c0.301,0.052,0.605,0.081,0.914,0.081c0.305,0,0.609-0.028,0.906-0.081h53.234
			C2068.648,1808.164,2078.611,1817.878,2079.889,1830.181z"/>
		<path fill="#FFFFFF" d="M1993.623,1788.807c-0.014,0.071-0.025,0.147-0.037,0.222"/>
		<path fill="#FFFFFF" d="M2003.252,1807.228c-0.08,0.018-0.158,0.032-0.24,0.046"/>
		<path fill="#FFFFFF" d="M1950.307,1698.494c-0.083,0.153-0.164,0.309-0.244,0.463"/>
		<path fill="#FFFFFF" d="M2004.496,1714.881c-0.086,1.018-0.236,2.025-0.438,3.007"/>
		<path fill="#FFFFFF" d="M1853.53,1893.031c-0.006-0.026-0.009-0.053-0.009-0.081c0-0.004,0-0.006,0-0.009
			c-0.049-0.54-0.087-1.079-0.104-1.625c-0.002-0.058-0.008-0.117-0.008-0.174c-0.009-0.289-0.012-0.576-0.012-0.87
			c0-0.292,0.003-0.579,0.012-0.869c0-0.06,0.006-0.115,0.008-0.176c0.018-0.547,0.056-1.092,0.104-1.631
			c0-0.028,0.003-0.056,0.009-0.083"/>
		<polyline fill="#FFFFFF" points="1950.063,1698.957 1949.983,1699.104 1949.943,1699.186 1949.932,1699.205 1949.921,1699.235 		
			"/>
		<line fill="#FFFFFF" x1="1858.733" y1="1873.543" x2="1858.705" y2="1873.602"/>
		<line fill="#FFFFFF" x1="2004.623" y1="1714.011" x2="2004.496" y2="1714.867"/>
	</g>
	<path display="inline" fill="#FFFFFF" d="M1788.501,1784.148c-4.604,13.422-19.219,20.571-32.641,15.965l-51.745-17.75
		c-13.422-4.606-20.57-19.22-15.966-32.644l0,0c4.605-13.421,19.219-20.57,32.643-15.965l51.743,17.751
		C1785.958,1756.111,1793.106,1770.724,1788.501,1784.148L1788.501,1784.148z"/>
	<path display="inline" fill="#FFFFFF" d="M1842.093,1708.561c-12.479,6.757-28.071,2.119-34.828-10.359l-26.048-48.106
		c-6.756-12.479-2.118-28.071,10.36-34.829l0,0c12.479-6.757,28.072-2.118,34.829,10.36l26.047,48.105
		C1859.21,1686.211,1854.572,1701.805,1842.093,1708.561L1842.093,1708.561z"/>
	<path display="inline" fill="#FFFFFF" d="M2075.596,1682.652c-12.096-7.422-15.881-23.244-8.457-35.339l28.617-46.621
		c7.424-12.095,23.246-15.882,35.34-8.458l0,0c12.092,7.424,15.881,23.247,8.457,35.34l-28.619,46.621
		C2103.512,1686.29,2087.689,1690.077,2075.596,1682.652L2075.596,1682.652z"/>
	<path display="inline" fill="#FFFFFF" d="M2133.352,1762.488c-5.086-13.248,1.533-28.11,14.781-33.193l51.07-19.6
		c13.25-5.084,28.111,1.535,33.197,14.784l0,0c5.084,13.248-1.535,28.109-14.785,33.193l-51.07,19.599
		C2153.295,1782.354,2138.434,1775.736,2133.352,1762.488L2133.352,1762.488z"/>
	<path display="inline" fill="#FFFFFF" d="M1783.209,1870.664c6.618,12.551,1.809,28.093-10.743,34.711l-48.39,25.516
		c-12.553,6.618-28.094,1.81-34.713-10.743l0,0c-6.618-12.554-1.808-28.095,10.744-34.714l48.39-25.515
		C1761.049,1853.3,1776.59,1858.111,1783.209,1870.664L1783.209,1870.664z"/>
	<g display="inline">
		<path fill="#FFFFFF" d="M1661.861,2365.618"/>
		<path fill="#FFFFFF" d="M1658.915,2358.109"/>
		<path fill="#FFFFFF" d="M1940.975,2314.913c-6.623,9.669-17.049,18.481-30.081,24.695l-3.093,1.213
			c-9.777,3.27-19.566,5.684-29.228,7.271c-9.105,1.5-18.101,2.273-26.871,2.35c-0.839,0.01-1.678,0.012-2.515,0.008
			c-45.338-0.217-84.299-19.17-100.704-52.57l-56.796-144.75l-13.871,5.441c-14.917,8.316-23.529,22.268-20.882,34.353l0.002,0.007
			l0.003,0.002l57.938,148.124l1.001,2.546c0.147,0.479,0.285,0.959,0.407,1.441c3.938,15.362-4.095,31.579-19.249,37.498
			c-15.209,5.936-32.245-0.581-39.817-14.615c-0.086-0.161-0.172-0.322-0.256-0.488c-0.254-0.479-0.49-0.974-0.718-1.472
			l-0.003-0.005l-0.684-1.742l-53.763-137.445l-0.003-0.009l-3.376-8.63l-0.012-0.025c-0.104-0.316-0.204-0.635-0.306-0.951
			c-0.265-0.828-0.517-1.658-0.755-2.489l0.144-0.057c-2.255-8.35-3.224-16.864-3.01-25.358
			c1.044-41.762,30.723-82.99,77.35-101.529c0.05-0.022,0.096-0.039,0.144-0.061c-0.057-37.091,24.323-75.928,64.247-102.381
			c8.165-5.411,16.981-10.301,26.369-14.558l3.095-1.213c13.781-4.305,27.422-4.917,38.864-2.307
			c12.459,2.84,22.313,9.503,26.9,19.378l61.848,157.625l54.265,138.303C1950.895,2292.835,1948.188,2304.384,1940.975,2314.913z"/>
		<line fill="#FFFFFF" x1="1691.688" y1="2153.13" x2="1691.636" y2="2152.994"/>
		<path fill="#FFFFFF" d="M1851.702,2350.442c8.678-0.092,17.575-0.863,26.583-2.35c9.661-1.588,19.45-4.002,29.227-7.271
			c0.594-0.199,1.188-0.401,1.784-0.607c0,0,0,0,0.004,0"/>
		<path fill="#FFFFFF" d="M1691.688,2153.13l0.127-0.051l0.099-0.037 M1656.939,2192.933c0.139,0.634,0.306,1.261,0.507,1.883
			l0.837,2.162 M1597.826,2215.824c-0.115-0.404-0.229-0.807-0.338-1.211"/>
		<path fill="#FFFFFF" d="M1675.615,2091.819"/>
	</g>
	<g display="inline">
		<path fill="#FFFFFF" d="M2267.75,2240.351"/>
		<path fill="#FFFFFF" d="M2271.449,2233.183"/>
		<path fill="#FFFFFF" d="M1995.303,2161.304c5.596,10.297,15.064,20.133,27.391,27.646l2.951,1.526
			c9.393,4.253,18.881,7.658,28.33,10.229c8.902,2.423,17.771,4.117,26.488,5.091c0.834,0.095,1.668,0.183,2.5,0.264
			c45.121,4.436,85.82-10.427,105.563-41.971l71.334-138.166l13.238,6.837c13.988,9.801,21.125,24.562,17.254,36.31l-0.004,0.009
			l-0.002,0.003l-72.816,141.402l-1.256,2.432c-0.197,0.461-0.383,0.924-0.553,1.389c-5.492,14.881,0.836,31.835,15.303,39.274
			c14.52,7.464,32.135,2.729,41.107-10.456c0.102-0.153,0.203-0.302,0.303-0.459c0.303-0.45,0.59-0.918,0.867-1.391l0.002-0.003
			l0.859-1.666l67.566-131.211l0.004-0.007l4.242-8.238l0.016-0.023c0.137-0.306,0.27-0.609,0.402-0.915
			c0.348-0.796,0.684-1.595,1.006-2.397l-0.139-0.071c3.1-8.077,4.936-16.445,5.594-24.918
			c3.242-41.65-22.055-85.701-66.535-108.924c-0.047-0.025-0.092-0.047-0.139-0.072c3.859-36.891-16.41-78.021-53.412-108.428
			c-7.568-6.221-15.838-11.988-24.74-17.183l-2.951-1.525c-13.268-5.695-26.773-7.701-38.424-6.278
			c-12.684,1.548-23.17,7.166-28.744,16.519l-77.68,150.457l-68.156,132.011C1987.697,2138.324,1989.206,2150.09,1995.303,2161.304z
			"/>
		<line fill="#FFFFFF" x1="2259.924" y1="2025.794" x2="2259.859" y2="2025.924"/>
		<path fill="#FFFFFF" d="M2024.217,2189.718c0.004,0.002,0.004,0.002,0.004,0.002c0.572,0.266,1.143,0.528,1.711,0.785
			c9.393,4.256,18.881,7.659,28.33,10.229c8.807,2.399,17.578,4.082,26.201,5.063"/>
		<path fill="#FFFFFF" d="M2259.645,2025.816l0.096,0.047l0.119,0.061 M2288.594,2072.965l1.053-2.065
			c0.264-0.595,0.494-1.205,0.699-1.817 M2347.26,2096.741c-0.15,0.389-0.303,0.778-0.459,1.17"/>
		<path fill="#FFFFFF" d="M2282.131,1966.585"/>
	</g>
</g>
</svg>
